<svg width="108" height="108" viewBox="0 0 108 108" fill="none" xmlns="http://www.w3.org/2000/svg">
<path d="M61.1208 52.0344C62.3752 50.4393 63.0655 48.4611 63.0804 46.4184C63.0804 43.9682 62.1238 41.6184 60.4209 39.8859C58.7179 38.1534 56.4083 37.1801 54 37.1801C51.5918 37.1801 49.2821 38.1534 47.5792 39.8859C45.8763 41.6184 44.9196 43.9682 44.9196 46.4184C44.9346 48.4611 45.6248 50.4393 46.8792 52.0344C44.419 53.5576 42.4889 55.8257 41.3592 58.5209C41.2011 58.8628 41.1125 59.2337 41.0986 59.6114C41.0848 59.989 41.146 60.3656 41.2786 60.7186C41.4112 61.0716 41.6125 61.3938 41.8704 61.6657C42.1283 61.9377 42.4375 62.1539 42.7795 62.3014C43.1215 62.4489 43.4892 62.5247 43.8607 62.5241C44.2321 62.5236 44.5996 62.4468 44.9412 62.2983C45.2828 62.1498 45.5914 61.9327 45.8485 61.6599C46.1056 61.3872 46.306 61.0645 46.4376 60.7111C47.072 59.2025 48.1256 57.9152 49.469 57.0073C50.8124 56.0995 52.3873 55.6105 54 55.6005C55.6175 55.605 57.1983 56.0914 58.5471 56.9996C59.896 57.9079 60.9538 59.1981 61.59 60.7111C61.8013 61.2186 62.1548 61.6517 62.6063 61.9563C63.0578 62.2609 63.5875 62.4235 64.1292 62.424C64.4986 62.417 64.8634 62.3408 65.2056 62.1993C65.8787 61.9085 66.4108 61.3577 66.6851 60.668C66.9593 59.9783 66.9533 59.2061 66.6684 58.5209C65.5315 55.8217 63.5913 53.5531 61.1208 52.0344ZM54 49.9846C53.2947 49.9845 52.6052 49.7714 52.0191 49.3721C51.4331 48.9728 50.9767 48.4054 50.7081 47.7419C50.4394 47.0783 50.3706 46.3486 50.5102 45.6452C50.6498 44.9417 50.9917 44.2964 51.4924 43.7909C51.9931 43.2855 52.6301 42.9427 53.3225 42.8061C54.015 42.6695 54.7317 42.7453 55.3818 43.0238C56.0319 43.3023 56.586 43.7709 56.9739 44.3703C57.3617 44.9696 57.5659 45.6727 57.5604 46.3903C57.5532 47.3461 57.1748 48.2603 56.5079 48.9335C55.841 49.6068 54.9396 49.9846 54 49.9846ZM70.56 25.92H37.44C35.244 25.92 33.138 26.8075 31.5852 28.3873C30.0324 29.9671 29.16 32.1098 29.16 34.344V65.232C29.16 67.4662 30.0324 69.6088 31.5852 71.1886C33.138 72.7685 35.244 73.656 37.44 73.656H44.5884L52.0404 81.2656C52.2983 81.5259 52.6042 81.7318 52.9405 81.8715C53.2767 82.0113 53.6368 82.0821 54 82.08C54.6579 82.08 55.2941 81.841 55.794 81.406L64.6812 73.656H70.56C72.756 73.656 74.8621 72.7685 76.4149 71.1886C77.9677 69.6088 78.84 67.4662 78.84 65.232V34.344C78.84 32.1098 77.9677 29.9671 76.4149 28.3873C74.8621 26.8075 72.756 25.92 70.56 25.92ZM73.32 65.232C73.32 65.9767 73.0293 66.6909 72.5117 67.2175C71.9941 67.7441 71.292 68.04 70.56 68.04H63.66C63.0022 68.0399 62.366 68.2789 61.866 68.7139L54.138 75.4531L47.6796 68.8543C47.4217 68.5941 47.1159 68.3881 46.7796 68.2484C46.4433 68.1087 46.0833 68.0378 45.72 68.04H37.44C36.708 68.04 36.006 67.7441 35.4884 67.2175C34.9708 66.6909 34.68 65.9767 34.68 65.232V34.344C34.68 33.5993 34.9708 32.8851 35.4884 32.3585C36.006 31.8319 36.708 31.536 37.44 31.536H70.56C71.292 31.536 71.9941 31.8319 72.5117 32.3585C73.0293 32.8851 73.32 33.5993 73.32 34.344V65.232Z" fill="#757575"/>
</svg>
