<svg width="84" height="84" viewBox="0 0 84 84" fill="none" xmlns="http://www.w3.org/2000/svg">
<path d="M53.7083 43.1667C56.3457 40.3344 57.8315 36.6199 57.875 32.75C57.875 28.5728 56.2156 24.5668 53.2619 21.6131C50.3082 18.6594 46.3022 17 42.125 17C37.9478 17 33.9418 18.6594 30.9881 21.6131C28.0344 24.5668 26.375 28.5728 26.375 32.75C26.4185 36.6199 27.9043 40.3344 30.5417 43.1667C26.8694 44.9953 23.7093 47.7081 21.3455 51.061C18.9817 54.4139 17.4885 58.3018 17 62.375C16.8785 63.4801 17.2009 64.5882 17.8963 65.4555C18.5918 66.3229 19.6033 66.8784 20.7083 67C21.8134 67.1216 22.9215 66.7992 23.7889 66.1037C24.6562 65.4083 25.2118 64.3967 25.3333 63.2917C25.8306 59.2547 27.7869 55.539 30.8337 52.8444C33.8805 50.1498 37.8076 48.6624 41.875 48.6624C45.9424 48.6624 49.8695 50.1498 52.9163 52.8444C55.9632 55.539 57.9195 59.2547 58.4167 63.2917C58.5326 64.3601 59.0568 65.3424 59.8798 66.0334C60.7028 66.7244 61.761 67.0708 62.8333 67H63.2917C64.3839 66.8743 65.3822 66.3221 66.069 65.4636C66.7558 64.605 67.0755 63.5099 66.9583 62.4167C66.5061 58.3649 65.0599 54.4876 62.7484 51.1294C60.4369 47.7711 57.3315 45.0358 53.7083 43.1667ZM42 40.1667C40.5331 40.1667 39.0992 39.7317 37.8795 38.9167C36.6599 38.1018 35.7093 36.9435 35.1479 35.5882C34.5866 34.233 34.4397 32.7418 34.7258 31.3031C35.012 29.8644 35.7184 28.5429 36.7556 27.5056C37.7929 26.4684 39.1144 25.762 40.5531 25.4759C41.9918 25.1897 43.483 25.3366 44.8382 25.8979C46.1935 26.4593 47.3518 27.4099 48.1667 28.6295C48.9817 29.8492 49.4167 31.2831 49.4167 32.75C49.4167 34.717 48.6353 36.6035 47.2444 37.9944C45.8535 39.3853 43.967 40.1667 42 40.1667ZM71.1667 0.333344H12.8333C9.51814 0.333344 6.33871 1.6503 3.99451 3.99451C1.6503 6.33871 0.333344 9.51814 0.333344 12.8333V71.1667C0.333344 74.4819 1.6503 77.6613 3.99451 80.0055C6.33871 82.3497 9.51814 83.6667 12.8333 83.6667H71.1667C74.4819 83.6667 77.6613 82.3497 80.0055 80.0055C82.3497 77.6613 83.6667 74.4819 83.6667 71.1667V12.8333C83.6667 9.51814 82.3497 6.33871 80.0055 3.99451C77.6613 1.6503 74.4819 0.333344 71.1667 0.333344ZM75.3333 71.1667C75.3333 72.2717 74.8944 73.3316 74.113 74.113C73.3316 74.8944 72.2717 75.3333 71.1667 75.3333H12.8333C11.7283 75.3333 10.6685 74.8944 9.88707 74.113C9.10566 73.3316 8.66668 72.2717 8.66668 71.1667V12.8333C8.66668 11.7283 9.10566 10.6685 9.88707 9.88707C10.6685 9.10566 11.7283 8.66668 12.8333 8.66668H71.1667C72.2717 8.66668 73.3316 9.10566 74.113 9.88707C74.8944 10.6685 75.3333 11.7283 75.3333 12.8333V71.1667Z" fill="#536DFE"/>
</svg>
