<svg width="100" height="100" viewBox="0 0 100 100" fill="none" xmlns="http://www.w3.org/2000/svg">
<path d="M68.75 46.875C68.75 46.0462 69.0792 45.2513 69.6653 44.6653C70.2513 44.0792 71.0462 43.75 71.875 43.75H78.125C78.9538 43.75 79.7487 44.0792 80.3347 44.6653C80.9208 45.2513 81.25 46.0462 81.25 46.875V53.125C81.25 53.9538 80.9208 54.7487 80.3347 55.3347C79.7487 55.9208 78.9538 56.25 78.125 56.25H71.875C71.0462 56.25 70.2513 55.9208 69.6653 55.3347C69.0792 54.7487 68.75 53.9538 68.75 53.125V46.875Z" fill="#536DFE"/>
<path d="M21.875 0C22.7038 0 23.4987 0.32924 24.0847 0.915291C24.6708 1.50134 25 2.2962 25 3.125V6.25H75V3.125C75 2.2962 75.3292 1.50134 75.9153 0.915291C76.5013 0.32924 77.2962 0 78.125 0C78.9538 0 79.7487 0.32924 80.3347 0.915291C80.9208 1.50134 81.25 2.2962 81.25 3.125V6.25H87.5C90.8152 6.25 93.9946 7.56696 96.3388 9.91117C98.683 12.2554 100 15.4348 100 18.75V87.5C100 90.8152 98.683 93.9946 96.3388 96.3388C93.9946 98.683 90.8152 100 87.5 100H12.5C9.18479 100 6.00537 98.683 3.66117 96.3388C1.31696 93.9946 0 90.8152 0 87.5V18.75C0 15.4348 1.31696 12.2554 3.66117 9.91117C6.00537 7.56696 9.18479 6.25 12.5 6.25H18.75V3.125C18.75 2.2962 19.0792 1.50134 19.6653 0.915291C20.2513 0.32924 21.0462 0 21.875 0V0ZM12.5 12.5C10.8424 12.5 9.25268 13.1585 8.08058 14.3306C6.90848 15.5027 6.25 17.0924 6.25 18.75V87.5C6.25 89.1576 6.90848 90.7473 8.08058 91.9194C9.25268 93.0915 10.8424 93.75 12.5 93.75H87.5C89.1576 93.75 90.7473 93.0915 91.9194 91.9194C93.0915 90.7473 93.75 89.1576 93.75 87.5V18.75C93.75 17.0924 93.0915 15.5027 91.9194 14.3306C90.7473 13.1585 89.1576 12.5 87.5 12.5H12.5Z" fill="#536DFE"/>
<path d="M15.625 25C15.625 24.1712 15.9542 23.3763 16.5403 22.7903C17.1263 22.2042 17.9212 21.875 18.75 21.875H81.25C82.0788 21.875 82.8737 22.2042 83.4597 22.7903C84.0458 23.3763 84.375 24.1712 84.375 25V31.25C84.375 32.0788 84.0458 32.8737 83.4597 33.4597C82.8737 34.0458 82.0788 34.375 81.25 34.375H18.75C17.9212 34.375 17.1263 34.0458 16.5403 33.4597C15.9542 32.8737 15.625 32.0788 15.625 31.25V25Z" fill="#536DFE"/>
</svg>
