<svg width="84" height="84" viewBox="0 0 84 84" fill="none" xmlns="http://www.w3.org/2000/svg">
<path d="M39.0417 55.7083C38.8625 55.9063 38.6955 56.1151 38.5417 56.3333C38.384 56.5656 38.2579 56.8178 38.1667 57.0833C38.0465 57.3195 37.9623 57.5723 37.9167 57.8333C37.8962 58.1107 37.8962 58.3893 37.9167 58.6667C37.9026 59.2132 38.0167 59.7555 38.25 60.25C38.4371 60.7671 38.7357 61.2367 39.1245 61.6255C39.5133 62.0143 39.9829 62.3129 40.5 62.5C40.9988 62.7204 41.538 62.8343 42.0833 62.8343C42.6286 62.8343 43.1679 62.7204 43.6667 62.5C44.1837 62.3129 44.6533 62.0143 45.0421 61.6255C45.431 61.2367 45.7295 60.7671 45.9167 60.25C46.1017 59.7434 46.1866 59.2057 46.1667 58.6667C46.1698 58.1183 46.0647 57.5747 45.8574 57.0671C45.65 56.5594 45.3445 56.0977 44.9583 55.7083C44.571 55.3178 44.1101 55.0078 43.6024 54.7963C43.0947 54.5848 42.55 54.4758 42 54.4758C41.4499 54.4758 40.9053 54.5848 40.3976 54.7963C39.8898 55.0078 39.429 55.3178 39.0417 55.7083ZM42 0.333336C33.7591 0.333336 25.7033 2.77704 18.8512 7.35544C11.9992 11.9338 6.65867 18.4413 3.50502 26.0549C0.351366 33.6684 -0.473772 42.0462 1.13395 50.1288C2.74166 58.2113 6.71003 65.6356 12.5372 71.4628C18.3644 77.29 25.7887 81.2583 33.8712 82.8661C41.9538 84.4738 50.3316 83.6486 57.9451 80.495C65.5587 77.3413 72.0662 72.0008 76.6446 65.1488C81.2229 58.2967 83.6667 50.2409 83.6667 42C83.6667 36.5283 82.5889 31.1101 80.495 26.0549C78.401 20.9996 75.3319 16.4063 71.4628 12.5372C67.5937 8.66811 63.0004 5.59897 57.9451 3.50502C52.8899 1.41108 47.4717 0.333336 42 0.333336ZM42 75.3333C35.4073 75.3333 28.9626 73.3784 23.481 69.7157C17.9993 66.0529 13.7269 60.847 11.204 54.7561C8.68109 48.6652 8.02098 41.963 9.30716 35.497C10.5933 29.031 13.768 23.0915 18.4298 18.4298C23.0915 13.768 29.031 10.5933 35.497 9.30716C41.963 8.02099 48.6652 8.6811 54.7561 11.204C60.847 13.7269 66.0529 17.9994 69.7156 23.481C73.3784 28.9626 75.3333 35.4073 75.3333 42C75.3333 50.8405 71.8214 59.319 65.5702 65.5702C59.319 71.8214 50.8405 75.3333 42 75.3333ZM42 21.1667C39.8044 21.1653 37.6472 21.7422 35.7455 22.8393C33.8437 23.9365 32.2644 25.5153 31.1667 27.4167C30.8652 27.8909 30.6628 28.4212 30.5716 28.9757C30.4804 29.5302 30.5023 30.0975 30.636 30.6433C30.7696 31.1891 31.0124 31.7022 31.3495 32.1518C31.6867 32.6014 32.1113 32.9781 32.5978 33.2594C33.0843 33.5406 33.6227 33.7205 34.1806 33.7882C34.7384 33.856 35.3042 33.8102 35.8439 33.6537C36.3836 33.4971 36.8861 33.233 37.321 32.8772C37.756 32.5214 38.1145 32.0813 38.375 31.5833C38.7421 30.9475 39.2707 30.4199 39.9073 30.0541C40.5438 29.6882 41.2658 29.4971 42 29.5C43.1051 29.5 44.1649 29.939 44.9463 30.7204C45.7277 31.5018 46.1667 32.5616 46.1667 33.6667C46.1667 34.7717 45.7277 35.8315 44.9463 36.6129C44.1649 37.3943 43.1051 37.8333 42 37.8333C40.8949 37.8333 39.8351 38.2723 39.0537 39.0537C38.2723 39.8351 37.8333 40.8949 37.8333 42V46.1667C37.8333 47.2717 38.2723 48.3315 39.0537 49.1129C39.8351 49.8943 40.8949 50.3333 42 50.3333C43.1051 50.3333 44.1649 49.8943 44.9463 49.1129C45.7277 48.3315 46.1667 47.2717 46.1667 46.1667V45.4167C48.9224 44.4168 51.239 42.4801 52.7115 39.9453C54.1841 37.4105 54.7189 34.4387 54.2225 31.5495C53.7261 28.6604 52.23 26.0376 49.9958 24.1396C47.7616 22.2417 44.9314 21.1894 42 21.1667Z" fill="#536DFE"/>
</svg>
