<svg width="84" height="84" viewBox="0 0 84 84" fill="none" xmlns="http://www.w3.org/2000/svg">
<path d="M26.8667 11.9583L15.4667 8.15417C14.2139 7.73691 12.8799 7.62332 11.5746 7.82277C10.2693 8.02222 9.03013 8.52898 7.95912 9.30131C6.88812 10.0736 6.01597 11.0894 5.41456 12.2649C4.81315 13.4405 4.49968 14.7421 4.5 16.0625V65.1583C4.49958 66.908 5.04991 68.6135 6.07298 70.0329C7.09605 71.4524 8.53995 72.5138 10.2 73.0667L26.8667 78.6208C28.5761 79.1902 30.4239 79.1902 32.1333 78.6208L51.8667 72.0458C53.5761 71.4765 55.4239 71.4765 57.1333 72.0458L68.5333 75.8458C69.7864 76.2632 71.1208 76.3767 72.4264 76.1771C73.732 75.9774 74.9715 75.4703 76.0426 74.6975C77.1137 73.9247 77.9857 72.9083 78.5869 71.7323C79.188 70.5562 79.501 69.2541 79.5 67.9333V18.8417C79.5007 17.0925 78.951 15.3874 77.9287 13.968C76.9064 12.5487 75.4634 11.487 73.8042 10.9333L57.1375 5.37917C55.4268 4.8089 53.5773 4.8089 51.8667 5.37917L32.1292 11.9542C30.4198 12.5235 28.5719 12.5235 26.8625 11.9542L26.8667 11.9583Z" stroke="#536DFE" stroke-width="8.33333" stroke-linecap="round" stroke-linejoin="round"/>
<path d="M29.5 12.8333V79.5" stroke="#536DFE" stroke-width="8.33333" stroke-linejoin="round"/>
<path d="M54.5 4.5V71.1667" stroke="#536DFE" stroke-width="8.33333" stroke-linejoin="round"/>
</svg>
