<svg width="84" height="80" viewBox="0 0 84 80" fill="none" xmlns="http://www.w3.org/2000/svg">
<path d="M83.6666 30.2917C83.4035 29.5295 82.9249 28.8601 82.2889 28.3646C81.6528 27.8691 80.8867 27.5687 80.0833 27.5L56.375 24.0417L45.75 2.49999C45.4088 1.79553 44.8761 1.20142 44.2129 0.785717C43.5496 0.370015 42.7827 0.149536 42 0.149536C41.2172 0.149536 40.4503 0.370015 39.7871 0.785717C39.1239 1.20142 38.5912 1.79553 38.25 2.49999L27.625 24L3.91665 27.5C3.1455 27.6096 2.4205 27.9332 1.82395 28.434C1.22739 28.9348 0.783154 29.5928 0.541654 30.3333C0.320591 31.057 0.300754 31.8272 0.48427 32.5612C0.667786 33.2953 1.04773 33.9655 1.58332 34.5L18.7917 51.1667L14.625 74.8333C14.4762 75.6145 14.5541 76.4219 14.8495 77.1602C15.1448 77.8985 15.6452 78.5369 16.2917 79C16.9217 79.4504 17.6649 79.7163 18.4377 79.7679C19.2105 79.8194 19.9824 79.6545 20.6667 79.2917L42 68.1667L63.25 79.3333C63.8348 79.6632 64.4952 79.8355 65.1666 79.8333C66.0493 79.8365 66.9101 79.5593 67.625 79.0417C68.2714 78.5786 68.7719 77.9402 69.0672 77.2019C69.3625 76.4636 69.4404 75.6562 69.2916 74.875L65.125 51.2083L82.3333 34.5417C82.9349 34.032 83.3795 33.3621 83.6156 32.6098C83.8516 31.8575 83.8693 31.0536 83.6666 30.2917ZM58.0417 46.9583C57.553 47.431 57.1874 48.016 56.9768 48.6624C56.7662 49.3088 56.7169 49.9969 56.8333 50.6667L59.8333 68.125L44.1667 59.7917C43.5638 59.4707 42.8913 59.3028 42.2083 59.3028C41.5253 59.3028 40.8528 59.4707 40.25 59.7917L24.5833 68.125L27.5833 50.6667C27.6997 49.9969 27.6505 49.3088 27.4398 48.6624C27.2292 48.016 26.8636 47.431 26.375 46.9583L13.875 34.4583L31.4167 31.9167C32.0916 31.8228 32.7333 31.5647 33.2854 31.1652C33.8375 30.7657 34.2831 30.2368 34.5833 29.625L42 13.75L49.8333 29.6667C50.1335 30.2785 50.5792 30.8073 51.1312 31.2069C51.6833 31.6064 52.325 31.8644 53 31.9583L70.5416 34.5L58.0417 46.9583Z" fill="#536DFE"/>
</svg>
