<svg width="100" height="100" viewBox="0 0 100 100" fill="none" xmlns="http://www.w3.org/2000/svg">
<path fill-rule="evenodd" clip-rule="evenodd" d="M66.6667 37.5C66.6667 41.9203 64.9108 46.1595 61.7852 49.2851C58.6595 52.4107 54.4203 54.1666 50 54.1666C45.5798 54.1666 41.3405 52.4107 38.2149 49.2851C35.0893 46.1595 33.3334 41.9203 33.3334 37.5C33.3334 33.0797 35.0893 28.8405 38.2149 25.7149C41.3405 22.5893 45.5798 20.8333 50 20.8333C54.4203 20.8333 58.6595 22.5893 61.7852 25.7149C64.9108 28.8405 66.6667 33.0797 66.6667 37.5V37.5ZM58.3334 37.5C58.3334 39.7101 57.4554 41.8297 55.8926 43.3925C54.3298 44.9553 52.2102 45.8333 50 45.8333C47.7899 45.8333 45.6703 44.9553 44.1075 43.3925C42.5447 41.8297 41.6667 39.7101 41.6667 37.5C41.6667 35.2898 42.5447 33.1702 44.1075 31.6074C45.6703 30.0446 47.7899 29.1666 50 29.1666C52.2102 29.1666 54.3298 30.0446 55.8926 31.6074C57.4554 33.1702 58.3334 35.2898 58.3334 37.5V37.5Z" fill="#536DFE"/>
<path fill-rule="evenodd" clip-rule="evenodd" d="M50 4.16666C24.6875 4.16666 4.16669 24.6875 4.16669 50C4.16669 75.3125 24.6875 95.8333 50 95.8333C75.3125 95.8333 95.8334 75.3125 95.8334 50C95.8334 24.6875 75.3125 4.16666 50 4.16666ZM12.5 50C12.5 58.7083 15.4709 66.725 20.45 73.0917C23.9468 68.4996 28.4579 64.7781 33.631 62.218C38.804 59.6578 44.499 58.3283 50.2709 58.3333C55.9681 58.3279 61.5913 59.623 66.7122 62.1199C71.8331 64.6168 76.3165 68.2497 79.8208 72.7417C83.431 68.0067 85.8618 62.4801 86.9121 56.6191C87.9623 50.7582 87.6018 44.7314 85.8604 39.0374C84.119 33.3435 81.0468 28.146 76.8979 23.8751C72.749 19.6043 67.6427 16.3827 62.0016 14.4771C56.3605 12.5715 50.3467 12.0365 44.4578 12.9165C38.5689 13.7965 32.9741 16.0662 28.1366 19.5377C23.299 23.0092 19.3576 27.5828 16.6385 32.88C13.9194 38.1772 12.5008 44.0457 12.5 50V50ZM50 87.5C41.3915 87.5129 33.0428 84.5514 26.3667 79.1167C29.0539 75.2697 32.6306 72.1288 36.7925 69.9612C40.9544 67.7935 45.5783 66.6633 50.2709 66.6667C54.9049 66.6629 59.4729 67.7649 63.5955 69.8809C67.7182 71.997 71.2765 75.0661 73.975 78.8333C67.2471 84.4446 58.7608 87.5123 50 87.5V87.5Z" fill="#536DFE"/>
</svg>
