<svg width="107" height="107" viewBox="0 0 107 107" fill="none" xmlns="http://www.w3.org/2000/svg">
<path d="M68.2125 93.625C69.2767 93.625 70.2973 93.2023 71.0498 92.4498C71.8022 91.6973 72.225 90.6767 72.225 89.6125C72.225 88.5483 71.8022 87.5277 71.0498 86.7752C70.2973 86.0227 69.2767 85.6 68.2125 85.6H34.775C31.9372 85.6 29.2156 84.4727 27.2089 82.466C25.2023 80.4594 24.075 77.7378 24.075 74.9V32.1C24.075 29.2622 25.2023 26.5406 27.2089 24.534C29.2156 22.5273 31.9372 21.4 34.775 21.4H68.2125C69.2767 21.4 70.2973 20.9773 71.0498 20.2248C71.8022 19.4723 72.225 18.4517 72.225 17.3875C72.225 16.3233 71.8022 15.3027 71.0498 14.5502C70.2973 13.7977 69.2767 13.375 68.2125 13.375H34.775C29.8088 13.375 25.046 15.3478 21.5344 18.8594C18.0228 22.371 16.05 27.1338 16.05 32.1V74.9C16.05 79.8662 18.0228 84.629 21.5344 88.1406C25.046 91.6522 29.8088 93.625 34.775 93.625H68.2125ZM73.5143 33.1646C73.9014 32.807 74.3552 32.529 74.8497 32.3467C75.3442 32.1644 75.8698 32.0814 76.3964 32.1022C76.923 32.1231 77.4404 32.2475 77.9189 32.4684C78.3974 32.6892 78.8278 33.0022 79.1853 33.3894L95.2353 50.7769C95.9204 51.5182 96.3009 52.4906 96.3009 53.5C96.3009 54.5094 95.9204 55.4818 95.2353 56.2231L79.1853 73.6106C78.4624 74.3918 77.4588 74.8537 76.3953 74.8948C75.3317 74.936 74.2954 74.5529 73.5143 73.83C72.7332 73.1071 72.2713 72.1034 72.2302 71.0399C72.189 69.9764 72.5721 68.9401 73.295 68.159L83.1283 57.5071H41.4625C40.3983 57.5071 39.3777 57.0844 38.6252 56.3319C37.8727 55.5794 37.45 54.5588 37.45 53.4946C37.45 52.4305 37.8727 51.4099 38.6252 50.6574C39.3777 49.9049 40.3983 49.4821 41.4625 49.4821H83.1229L73.2896 38.8303C72.932 38.4432 72.654 37.9895 72.4717 37.495C72.2894 37.0005 72.2064 36.4749 72.2272 35.9483C72.2481 35.4216 72.3725 34.9043 72.5933 34.4257C72.8142 33.9472 73.1271 33.5169 73.5143 33.1593V33.1646Z" fill="#536DFE"/>
</svg>
