<svg width="84" height="72" viewBox="0 0 84 72" fill="none" xmlns="http://www.w3.org/2000/svg">
<path d="M79.5 29.75H75.3333V25.5833C75.3333 24.4783 74.8944 23.4185 74.113 22.6371C73.3316 21.8556 72.2717 21.4167 71.1667 21.4167C70.0616 21.4167 69.0018 21.8556 68.2204 22.6371C67.439 23.4185 67 24.4783 67 25.5833V29.75H62.8333C61.7283 29.75 60.6685 30.189 59.8871 30.9704C59.1057 31.7518 58.6667 32.8116 58.6667 33.9167C58.6667 35.0217 59.1057 36.0815 59.8871 36.8629C60.6685 37.6443 61.7283 38.0833 62.8333 38.0833H67V42.25C67 43.3551 67.439 44.4149 68.2204 45.1963C69.0018 45.9777 70.0616 46.4167 71.1667 46.4167C72.2717 46.4167 73.3316 45.9777 74.113 45.1963C74.8944 44.4149 75.3333 43.3551 75.3333 42.25V38.0833H79.5C80.6051 38.0833 81.6649 37.6443 82.4463 36.8629C83.2277 36.0815 83.6667 35.0217 83.6667 33.9167C83.6667 32.8116 83.2277 31.7518 82.4463 30.9704C81.6649 30.189 80.6051 29.75 79.5 29.75ZM47.4167 36.9167C49.6399 34.9922 51.4231 32.612 52.6453 29.9376C53.8675 27.2632 54.5 24.3571 54.5 21.4167C54.5 15.8913 52.3051 10.5923 48.3981 6.68527C44.4911 2.77826 39.192 0.583328 33.6667 0.583328C28.1413 0.583328 22.8423 2.77826 18.9353 6.68527C15.0283 10.5923 12.8333 15.8913 12.8333 21.4167C12.8333 24.3571 13.4658 27.2632 14.688 29.9376C15.9102 32.612 17.6934 34.9922 19.9167 36.9167C14.0839 39.5578 9.13528 43.823 5.66243 49.2023C2.18957 54.5815 0.339476 60.8471 0.333344 67.25C0.333344 68.3551 0.77233 69.4149 1.55373 70.1963C2.33513 70.9777 3.39494 71.4167 4.50001 71.4167C5.60508 71.4167 6.66489 70.9777 7.44629 70.1963C8.22769 69.4149 8.66668 68.3551 8.66668 67.25C8.66668 60.6196 11.3006 54.2607 15.989 49.5723C20.6774 44.8839 27.0363 42.25 33.6667 42.25C40.2971 42.25 46.6559 44.8839 51.3443 49.5723C56.0328 54.2607 58.6667 60.6196 58.6667 67.25C58.6667 68.3551 59.1057 69.4149 59.8871 70.1963C60.6685 70.9777 61.7283 71.4167 62.8333 71.4167C63.9384 71.4167 64.9982 70.9777 65.7796 70.1963C66.561 69.4149 67 68.3551 67 67.25C66.9939 60.8471 65.1438 54.5815 61.6709 49.2023C58.1981 43.823 53.2494 39.5578 47.4167 36.9167ZM33.6667 33.9167C31.1944 33.9167 28.7777 33.1835 26.722 31.81C24.6664 30.4365 23.0643 28.4843 22.1182 26.2002C21.1721 23.9161 20.9245 21.4028 21.4069 18.978C21.8892 16.5533 23.0797 14.326 24.8278 12.5778C26.576 10.8297 28.8033 9.63916 31.228 9.15685C33.6528 8.67453 36.1661 8.92207 38.4502 9.86817C40.7343 10.8143 42.6865 12.4164 44.06 14.472C45.4336 16.5276 46.1667 18.9444 46.1667 21.4167C46.1667 24.7319 44.8497 27.9113 42.5055 30.2555C40.1613 32.5997 36.9819 33.9167 33.6667 33.9167Z" fill="#536DFE"/>
</svg>
