<svg width="84" height="84" viewBox="0 0 84 84" fill="none" xmlns="http://www.w3.org/2000/svg">
<path d="M71.1667 17H50.3333C49.2283 17 48.1685 17.439 47.3871 18.2204C46.6057 19.0018 46.1667 20.0616 46.1667 21.1667C46.1667 22.2717 46.6057 23.3316 47.3871 24.113C48.1685 24.8944 49.2283 25.3333 50.3333 25.3333H71.1667C72.2717 25.3333 73.3316 25.7723 74.113 26.5537C74.8944 27.3351 75.3333 28.3949 75.3333 29.5V70L68.7917 63.9583C68.0232 63.2389 67.011 62.837 65.9583 62.8333H29.5C28.3949 62.8333 27.3351 62.3944 26.5537 61.613C25.7723 60.8316 25.3333 59.7717 25.3333 58.6667V50.3333C25.3333 49.2283 24.8944 48.1685 24.113 47.3871C23.3316 46.6057 22.2717 46.1667 21.1667 46.1667C20.0616 46.1667 19.0018 46.6057 18.2204 47.3871C17.439 48.1685 17 49.2283 17 50.3333V58.6667C17 61.9819 18.317 65.1613 20.6612 67.5055C23.0054 69.8497 26.1848 71.1667 29.5 71.1667H64.3333L76.8333 82.5417C77.5592 83.2233 78.5052 83.6224 79.5 83.6667C80.0715 83.6604 80.6368 83.5474 81.1667 83.3333C81.912 83.0081 82.5458 82.4718 82.9901 81.7906C83.4343 81.1095 83.6695 80.3132 83.6667 79.5V29.5C83.6667 26.1848 82.3497 23.0054 80.0055 20.6612C77.6613 18.317 74.4819 17 71.1667 17ZM27.7083 33.6667L34.875 40.875C35.2624 41.2655 35.7232 41.5755 36.2309 41.7871C36.7387 41.9986 37.2833 42.1075 37.8333 42.1075C38.3834 42.1075 38.928 41.9986 39.4357 41.7871C39.9435 41.5755 40.4043 41.2655 40.7917 40.875C41.1822 40.4877 41.4922 40.0268 41.7037 39.5191C41.9153 39.0113 42.0242 38.4667 42.0242 37.9167C42.0242 37.3666 41.9153 36.822 41.7037 36.3143C41.4922 35.8065 41.1822 35.3457 40.7917 34.9583L33.6667 27.7083C35.4129 24.8759 36.3496 21.6191 36.375 18.2917C36.375 13.5123 34.4764 8.92858 31.0968 5.54902C27.7173 2.16946 23.1336 0.270844 18.3542 0.270844C13.5748 0.270844 8.99109 2.16946 5.61152 5.54902C2.23196 8.92858 0.333344 13.5123 0.333344 18.2917C0.333331 23.0584 2.22403 27.6304 5.59068 31.0049C8.95733 34.3793 13.525 36.2806 18.2917 36.2917C21.6117 36.2956 24.8691 35.3876 27.7083 33.6667ZM8.66668 18.2917C8.66585 17.0284 8.91587 15.7776 9.40225 14.6117C9.88862 13.4458 10.6017 12.3881 11.5 11.5C12.4004 10.5778 13.4762 9.84491 14.664 9.34455C15.8519 8.84419 17.1278 8.58643 18.4167 8.58643C19.7056 8.58643 20.9815 8.84419 22.1693 9.34455C23.3571 9.84491 24.4329 10.5778 25.3333 11.5C26.2608 12.3975 26.9982 13.4723 27.5019 14.6605C28.0055 15.8487 28.265 17.1261 28.265 18.4167C28.265 19.7072 28.0055 20.9846 27.5019 22.1728C26.9982 23.3611 26.2608 24.4359 25.3333 25.3333C23.9794 26.7582 22.2233 27.7365 20.2991 28.1378C18.3749 28.539 16.3742 28.3442 14.5636 27.5792C12.753 26.8142 11.2186 25.5155 10.1651 23.8561C9.1115 22.1968 8.5888 20.2557 8.66668 18.2917Z" fill="#536DFE"/>
</svg>
