<svg width="48" height="56" viewBox="0 0 48 56" fill="none" xmlns="http://www.w3.org/2000/svg">
<path d="M31.553 3.409C31.9767 3.24967 32.3221 2.93239 32.5168 2.52378C32.7115 2.11516 32.7403 1.647 32.5972 1.2176C32.4541 0.788196 32.1501 0.430954 31.7492 0.220885C31.3483 0.0108158 30.8815 -0.035738 30.447 0.0909987C27.164 1.183 25.1165 3.878 23.916 6.7655C23.7532 7.15577 23.6037 7.5515 23.468 7.952C22.8134 6.71021 21.9757 5.57399 20.983 4.5815C19.6377 3.23332 18.0309 2.17457 16.2613 1.47035C14.4917 0.766123 12.5968 0.431311 10.693 0.486498C9.71801 0.512959 8.79018 0.911852 8.10017 1.60121C7.41016 2.29057 7.01039 3.21802 6.98301 4.193C6.92783 6.09677 7.26264 7.9917 7.96686 9.76129C8.67109 11.5309 9.72984 13.1377 11.078 14.483L11.19 14.588C8.25 15.2249 5.59312 16.7913 3.61257 19.0555C1.63201 21.3197 0.433015 24.1614 0.193013 27.16L0.172013 27.419C-0.290051 33.1842 0.938386 38.959 3.70701 44.037L4.96351 46.34C4.99851 46.3995 5.03351 46.459 5.07551 46.515L8.57551 51.422C9.36877 52.5329 10.3945 53.4577 11.5814 54.132C12.7683 54.8063 14.0879 55.2139 15.4483 55.3265C16.8087 55.4391 18.1774 55.2539 19.459 54.784C20.7406 54.314 21.9044 53.5704 22.8695 52.605C23.0177 52.4567 23.1937 52.3391 23.3874 52.2589C23.581 52.1786 23.7886 52.1373 23.9983 52.1373C24.2079 52.1373 24.4155 52.1786 24.6092 52.2589C24.8028 52.3391 24.9788 52.4567 25.127 52.605C26.0921 53.5704 27.2559 54.314 28.5376 54.784C29.8192 55.2539 31.1878 55.4391 32.5482 55.3265C33.9086 55.2139 35.2282 54.8063 36.4151 54.132C37.602 53.4577 38.6278 52.5329 39.421 51.422L42.921 46.5185C42.963 46.4613 43.0016 46.4017 43.0365 46.34L44.2895 44.037C47.0594 38.9594 48.289 33.1845 47.828 27.419L47.807 27.16C47.6521 25.2276 47.0975 23.3484 46.1784 21.6415C45.2593 19.9347 43.9957 18.4372 42.4677 17.2442C40.9397 16.0511 39.1805 15.1884 37.3017 14.7107C35.4229 14.233 33.4653 14.1507 31.553 14.469L25.75 15.435C25.785 13.0515 26.205 10.3705 27.143 8.1095C28.1265 5.747 29.5825 4.067 31.553 3.409ZM13.178 24.409C12.6413 24.5793 12.1436 24.8541 11.7135 25.2175C11.2834 25.5809 10.9295 26.0258 10.672 26.5265C10.021 27.7445 9.58001 29.7535 9.98951 33.033C10.0471 33.4939 9.91918 33.9587 9.63398 34.3253C9.34878 34.6919 8.92964 34.9302 8.46876 34.9878C8.00788 35.0453 7.54302 34.9174 7.17643 34.6322C6.80984 34.347 6.57157 33.9279 6.51401 33.467C6.05201 29.743 6.48251 26.9395 7.58501 24.878C8.70501 22.778 10.4095 21.644 12.072 21.0875C12.5125 20.9404 12.9933 20.9742 13.4088 21.1817C13.8243 21.3891 14.1404 21.753 14.2875 22.1935C14.4346 22.634 14.4008 23.1148 14.1934 23.5303C13.9859 23.9458 13.622 24.2619 13.1815 24.409H13.178Z" fill="#E64A19"/>
</svg>
