<svg width="70" height="34" viewBox="0 0 70 34" fill="none" xmlns="http://www.w3.org/2000/svg">
<path d="M21.5833 2.41669H13.4166C12.9525 2.41669 12.5074 2.60106 12.1792 2.92925C11.851 3.25744 11.6666 3.70256 11.6666 4.16669V29.8334C11.6666 30.0632 11.7119 30.2907 11.7998 30.5031C11.8878 30.7154 12.0167 30.9083 12.1792 31.0708C12.3417 31.2333 12.5346 31.3622 12.7469 31.4501C12.9592 31.5381 13.1868 31.5834 13.4166 31.5834H21.5833C21.8131 31.5834 22.0407 31.5381 22.253 31.4501C22.4653 31.3622 22.6582 31.2333 22.8207 31.0708C22.9832 30.9083 23.1121 30.7154 23.2001 30.5031C23.288 30.2907 23.3333 30.0632 23.3333 29.8334V4.16669C23.3333 3.70256 23.1489 3.25744 22.8207 2.92925C22.4925 2.60106 22.0474 2.41669 21.5833 2.41669V2.41669ZM56.5833 2.41669H48.4166C47.9525 2.41669 47.5074 2.60106 47.1792 2.92925C46.851 3.25744 46.6666 3.70256 46.6666 4.16669V29.8334C46.6666 30.0632 46.7119 30.2907 46.7998 30.5031C46.8878 30.7154 47.0167 30.9083 47.1792 31.0708C47.3417 31.2333 47.5346 31.3622 47.7469 31.4501C47.9593 31.5381 48.1868 31.5834 48.4166 31.5834H56.5833C56.8131 31.5834 57.0407 31.5381 57.253 31.4501C57.4653 31.3622 57.6582 31.2333 57.8207 31.0708C57.9832 30.9083 58.1121 30.7154 58.2001 30.5031C58.288 30.2907 58.3333 30.0632 58.3333 29.8334V4.16669C58.3333 3.70256 58.1489 3.25744 57.8207 2.92925C57.4925 2.60106 57.0474 2.41669 56.5833 2.41669V2.41669Z" stroke="#E64A19" stroke-width="4.375" stroke-linecap="round" stroke-linejoin="round"/>
<path d="M23.3333 17H46.6666M2.91663 24V10C2.91663 9.53587 3.101 9.09075 3.42919 8.76256C3.75738 8.43437 4.2025 8.25 4.66663 8.25H9.91663C10.3808 8.25 10.8259 8.43437 11.1541 8.76256C11.4823 9.09075 11.6666 9.53587 11.6666 10V24C11.6666 24.4641 11.4823 24.9092 11.1541 25.2374C10.8259 25.5656 10.3808 25.75 9.91663 25.75H4.66663C4.2025 25.75 3.75738 25.5656 3.42919 25.2374C3.101 24.9092 2.91663 24.4641 2.91663 24V24ZM67.0833 24V10C67.0833 9.53587 66.8989 9.09075 66.5707 8.76256C66.2425 8.43437 65.7974 8.25 65.3333 8.25H60.0833C59.6192 8.25 59.174 8.43437 58.8459 8.76256C58.5177 9.09075 58.3333 9.53587 58.3333 10V24C58.3333 24.4641 58.5177 24.9092 58.8459 25.2374C59.174 25.5656 59.6192 25.75 60.0833 25.75H65.3333C65.7974 25.75 66.2425 25.5656 66.5707 25.2374C66.8989 24.9092 67.0833 24.4641 67.0833 24V24Z" stroke="#E64A19" stroke-width="4.375" stroke-linecap="round" stroke-linejoin="round"/>
</svg>
