<svg width="70" height="70" viewBox="0 0 70 70" fill="none" xmlns="http://www.w3.org/2000/svg">
<path d="M40.6875 8.75H21.875C18.394 8.75 15.0556 10.1328 12.5942 12.5942C10.1328 15.0556 8.75 18.394 8.75 21.875V61.25H35V24.0625C35 17.8762 37.2181 12.3594 40.6875 8.75ZM50.3125 4.375C58.7694 4.375 65.625 13.1906 65.625 24.0625C65.625 34.9344 58.7694 43.75 50.3125 43.75H39.375V65.625H4.375V21.875C4.375 17.2337 6.21875 12.7825 9.50063 9.50063C12.7825 6.21875 17.2337 4.375 21.875 4.375H50.3125ZM39.375 24.0625V39.375H50.3125C56.0787 39.375 61.25 32.725 61.25 24.0625C61.25 15.4 56.0787 8.75 50.3125 8.75C44.5463 8.75 39.375 15.4 39.375 24.0625Z" fill="#E64A19"/>
<path d="M50.3125 30.625C47.8975 30.625 45.9375 27.685 45.9375 24.0625C45.9375 20.44 47.8975 17.5 50.3125 17.5C52.7275 17.5 54.6875 20.44 54.6875 24.0625C54.6875 27.685 52.7275 30.625 50.3125 30.625Z" fill="#E64A19"/>
</svg>
