<svg width="148" height="148" viewBox="0 0 148 148" fill="none" xmlns="http://www.w3.org/2000/svg">
<path d="M90.4034 83.62L64.565 92.87C63.2071 93.3626 62.0652 94.3163 61.3384 95.5647C60.6117 96.8131 60.3463 98.2771 60.5886 99.7012C60.8308 101.125 61.5653 102.419 62.6639 103.357C63.7626 104.295 65.1556 104.817 66.6 104.833C67.3151 104.832 68.0246 104.707 68.6967 104.463L94.5967 95.2133C95.3797 94.9549 96.1029 94.5421 96.7235 93.9994C97.3442 93.4566 97.8497 92.7949 98.2102 92.0534C98.5706 91.3119 98.7787 90.5056 98.8222 89.6822C98.8656 88.8589 98.7435 88.0352 98.4631 87.2598C98.1826 86.4845 97.7495 85.7733 97.1894 85.1682C96.6293 84.5632 95.9536 84.0766 95.2022 83.7372C94.4507 83.3979 93.6389 83.2126 92.8146 83.1925C91.9904 83.1724 91.1705 83.3177 90.4034 83.62ZM65.7367 65.12C66.8853 63.9646 67.5299 62.4016 67.5299 60.7725C67.5299 59.1434 66.8853 57.5804 65.7367 56.425C62.2077 53.0764 57.5282 51.2097 52.6634 51.2097C47.7985 51.2097 43.1191 53.0764 39.59 56.425C38.9445 56.9778 38.4202 57.6581 38.0501 58.4232C37.6799 59.1882 37.4719 60.0216 37.4391 60.8708C37.4063 61.7201 37.5494 62.567 37.8594 63.3583C38.1695 64.1497 38.6397 64.8684 39.2407 65.4693C39.8417 66.0703 40.5604 66.5406 41.3517 66.8506C42.1431 67.1606 42.9899 67.3037 43.8392 67.2709C44.6885 67.2381 45.5218 67.0301 46.2869 66.66C47.0519 66.2898 47.7322 65.7655 48.285 65.12C48.8583 64.542 49.5403 64.0832 50.2918 63.7702C51.0433 63.4571 51.8493 63.2959 52.6634 63.2959C53.4774 63.2959 54.2835 63.4571 55.0349 63.7702C55.7864 64.0832 56.4684 64.542 57.0417 65.12C58.1971 66.2685 59.7601 66.9132 61.3892 66.9132C63.0184 66.9132 64.5813 66.2685 65.7367 65.12ZM108.903 56.425C105.374 53.0764 100.695 51.2097 95.83 51.2097C90.9652 51.2097 86.2858 53.0764 82.7567 56.425C81.7464 57.6047 81.2185 59.1222 81.2785 60.6742C81.3384 62.2262 81.9818 63.6984 83.0801 64.7966C84.1783 65.8949 85.6505 66.5383 87.2025 66.5982C88.7545 66.6582 90.272 66.1303 91.4517 65.12C92.025 64.542 92.707 64.0832 93.4585 63.7702C94.21 63.4571 95.016 63.2959 95.83 63.2959C96.6441 63.2959 97.4501 63.4571 98.2016 63.7702C98.9531 64.0832 99.6351 64.542 100.208 65.12C101.364 66.2685 102.927 66.9132 104.556 66.9132C106.185 66.9132 107.748 66.2685 108.903 65.12C109.475 64.5294 109.923 63.8305 110.22 63.0644C110.518 62.2983 110.659 61.4805 110.636 60.6589C110.614 59.8373 110.427 59.0287 110.087 58.2804C109.747 57.5321 109.26 56.8594 108.657 56.3017L108.903 56.425ZM74 12.3333C61.8035 12.3333 49.8809 15.95 39.7399 22.726C29.5988 29.5021 21.6949 39.1331 17.0275 50.4012C12.3601 61.6693 11.1389 74.0684 13.5183 86.0306C15.8977 97.9927 21.7709 108.981 30.3951 117.605C39.0194 126.229 50.0073 132.102 61.9695 134.482C73.9316 136.861 86.3307 135.64 97.5989 130.973C108.867 126.305 118.498 118.401 125.274 108.26C132.05 98.1191 135.667 86.1965 135.667 74C135.667 65.9018 134.072 57.8829 130.973 50.4012C127.874 42.9194 123.331 36.1214 117.605 30.3951C111.879 24.6688 105.081 20.1265 97.5989 17.0274C90.1171 13.9284 82.0982 12.3333 74 12.3333ZM74 123.333C64.2428 123.333 54.7047 120.44 46.5919 115.019C38.4791 109.598 32.1559 101.894 28.422 92.879C24.6881 83.8646 23.7111 73.9453 25.6146 64.3755C27.5182 54.8058 32.2167 46.0155 39.1161 39.1161C46.0155 32.2167 54.8059 27.5181 64.3756 25.6146C73.9453 23.7111 83.8646 24.688 92.8791 28.4219C101.894 32.1559 109.598 38.479 115.019 46.5919C120.44 54.7047 123.333 64.2428 123.333 74C123.333 87.084 118.136 99.6321 108.884 108.884C99.6322 118.136 87.0841 123.333 74 123.333Z" fill="#536DFE"/>
</svg>
